<svg width="165" height="120" viewBox="0 0 165 120" fill="none" xmlns="http://www.w3.org/2000/svg">
<path d="M19.6864 0C22.5107 0.194406 24.948 1.74786 26.7695 3.84375C30.4083 8.02808 31.7671 13.6286 31.9159 19.0459C31.9643 20.8249 31.8449 22.595 31.8505 24.374C34.537 20.7933 38.318 15.088 43.0917 14.4287C44.6526 14.2121 46.2844 14.5003 47.5439 15.4834C49.0005 16.6239 49.7611 18.4833 49.9472 20.2773C50.2261 22.958 49.3628 25.3873 48.122 27.7256L74.4443 26.9688C79.0227 26.8299 83.6237 26.5202 88.204 26.5498C88.4886 26.5517 89.1861 26.5168 89.4003 26.6943C92.7063 37.7865 95.795 48.9477 99.1698 60.0195C101.034 59.9122 102.932 59.7712 104.8 59.7656C107.92 55.2796 112.539 50.9156 118.115 49.9102L118.277 49.8809C118.218 49.1737 118.152 48.4677 118.156 47.7568C116.197 47.592 114.335 46.8991 113.04 45.3662C110.886 42.8168 111.237 39.1322 110.824 36.0459C110.406 36.0052 109.942 36.0088 109.652 35.6572C109.476 35.4426 109.442 35.1571 109.492 34.8906C109.637 34.1466 110.218 33.4466 110.668 32.8506C110.692 32.3009 110.679 31.7211 110.792 31.1807C110.701 31.0013 110.616 30.8196 110.534 30.6348C110.452 30.4516 110.375 30.2659 110.303 30.0771C110.23 29.8903 110.164 29.7011 110.101 29.5088C110.037 29.3182 109.98 29.1251 109.926 28.9326C109.872 28.7384 109.823 28.5438 109.78 28.3477C109.736 28.1516 109.696 27.9528 109.663 27.7549C109.63 27.5571 109.6 27.3588 109.576 27.1592C109.552 26.9595 109.532 26.7593 109.518 26.5596C109.503 26.358 109.494 26.1576 109.49 25.9561C109.486 25.7562 109.487 25.5533 109.492 25.3535C109.498 25.152 109.509 24.9516 109.523 24.752C109.54 24.5504 109.561 24.3502 109.587 24.1523C109.613 23.9525 109.642 23.7536 109.678 23.5557C109.713 23.358 109.754 23.1617 109.799 22.9658C109.843 22.7699 109.893 22.5749 109.949 22.3809C110.003 22.1885 110.063 21.9952 110.128 21.8047C111.413 17.8889 114.3 14.8835 117.985 13.0635C122.363 10.8993 126.826 10.9545 131.395 12.5078C135.384 13.865 138.67 16.1002 140.575 19.9531C142.218 23.2783 142.121 26.8649 141.286 30.3955C144.123 30.3937 146.506 31.1123 148.563 33.1523C150.403 34.9742 151.479 37.6425 151.453 40.2197C151.423 43.1985 150.21 45.9204 148.065 47.9902C146.209 49.7804 143.924 50.8195 141.609 51.8877C142.835 52.4246 143.987 53.3355 145.048 54.1465C150.808 58.5511 155.628 64.8237 158.279 71.5703C158.705 72.6532 159.088 73.761 159.466 74.8643C159.654 75.414 159.809 76.0529 160.069 76.5693C160.309 77.0432 160.819 77.4699 161.141 77.8994C161.844 78.8436 162.434 80.0102 162.893 81.084C165.994 88.3194 163.429 95.8478 162.659 103.248L161.029 114.377C160.806 115.808 160.657 118.182 160.051 119.404C159.707 119.624 158.994 119.624 158.583 119.639C157.348 119.678 156.098 119.606 154.861 119.584C152.577 119.558 150.292 119.516 148.008 119.461L128.339 119.206C125.457 119.186 122.048 118.923 119.215 119.167C119.113 119.531 119.097 119.726 118.824 120L118.655 119.973C118.4 119.602 118.454 119.132 117.965 119.067C116.973 118.938 115.895 119.032 114.891 119.012C112.468 118.949 110.046 118.909 107.622 118.896L85.7001 118.482C81.2072 118.41 76.6651 118.493 72.1796 118.269C71.8766 118.254 71.5123 118.256 71.2558 118.084C70.9973 117.558 71.3275 116.728 71.5136 116.206C72.6318 113.05 76.2359 110.761 79.1288 109.419C83.3278 107.468 88.0225 106.551 92.5917 105.997C90.0337 105.231 88.6732 104.186 86.8202 102.331C80.9728 102.424 75.1268 102.554 69.2831 102.719L46.8827 103.233C41.9155 103.37 36.9311 103.642 31.9657 103.694C29.923 100.747 27.9879 97.7355 26.0029 94.751L16.0722 79.917C13.7504 76.5159 11.4802 73.083 9.26067 69.6152C8.68212 68.7063 7.85589 67.7526 7.41496 66.7881C7.03558 65.9582 6.71567 60.9751 6.80656 59.9346C6.92177 59.7903 7.11155 59.8102 7.28996 59.7881C8.53824 59.6363 9.87826 59.6936 11.1396 59.6621L18.8368 59.4697C18.7476 58.735 18.2804 56.4045 18.6034 55.9219C18.7987 55.846 18.9969 55.7752 19.1884 55.6846C18.7844 54.6864 16.3061 51.7891 15.4521 50.6689C11.4131 45.3702 7.23252 40.1455 3.86516 34.3857C2.75643 32.4863 1.68858 30.564 0.966721 28.4795C-0.0155564 25.6469 -0.48852 22.2782 0.718674 19.4307C1.25812 18.159 2.25028 16.8929 3.58196 16.3965C5.05356 15.8485 6.74902 16.0961 8.1425 16.7607C11.4635 18.3456 13.5955 21.6828 15.4765 24.6748C13.9323 18.8335 10.6285 8.97208 13.8466 3.3916C14.801 1.73833 16.2113 0.676847 18.0605 0.197266C18.6036 0.0565937 19.1285 0.0148234 19.6864 0ZM123.846 50.3545C121.723 50.3341 119.496 50.4172 117.431 50.9355C114.151 51.7614 111.014 53.9002 108.683 56.2959C106.26 58.7824 104.346 61.8581 102.389 64.7148L93.2128 78.3857L85.5107 89.7139C84.1656 91.7022 82.7656 93.6777 81.5341 95.7363C84.5591 98.8282 89.0729 104.468 93.4374 105.3C95.6159 105.715 97.6871 105.284 99.4247 103.897C101.047 102.603 102.294 100.815 103.345 99.0449C104.766 96.6531 105.86 93.9832 107.03 91.458C109.371 86.4426 111.643 81.3968 113.846 76.3184C114.123 75.6929 115.086 73.0493 115.505 72.7969C115.655 72.7062 115.665 72.7424 115.819 72.7812L115.895 72.9648C115.836 74.3405 114.567 76.576 114.002 77.9033C111.965 82.6816 109.817 87.3936 107.665 92.1201C106.779 93.9846 105.129 96.9642 104.606 98.8174C104.156 100.419 104.162 103.124 103.961 104.881C103.633 107.736 103.112 110.571 102.775 113.428C108.282 113.467 113.792 113.533 119.299 113.627C119.926 108.273 120.644 102.929 121.447 97.5967C122.028 93.5441 122.415 89.2296 123.737 85.3398C123.864 84.9717 123.998 84.6048 124.14 84.2422C124.283 83.8796 124.432 83.5203 124.592 83.165C124.75 82.8079 124.917 82.4553 125.092 82.1074C125.267 81.7595 125.449 81.4147 125.641 81.0742C125.832 80.7356 126.03 80.3987 126.236 80.0693C126.443 79.7381 126.657 79.4118 126.878 79.0898C127.099 78.7697 127.328 78.4526 127.564 78.1436C127.8 77.8327 128.043 77.5273 128.294 77.2275C131.715 73.1711 136.852 70.6842 142.132 70.2471C148.364 69.7287 153.942 71.3355 158.727 75.3809C158.623 74.7367 158.378 74.1031 158.145 73.4941C155.438 66.366 151.025 59.9671 145.027 55.1885C143.617 54.0646 142.041 52.8999 140.393 52.1611C136.78 52.9202 133.224 52.9244 129.725 51.6729C128.794 51.3396 127.916 50.7196 126.952 50.5215C125.953 50.3198 124.861 50.3897 123.846 50.3545ZM36.5263 104.591C36.9391 104.991 36.8538 105.456 36.8613 105.996C36.878 106.957 37.0729 109.234 36.6806 110.03L36.4911 110.175C36.4186 110.095 36.2655 109.966 36.2226 109.873C35.9363 109.275 36.0521 106.075 36.1005 105.287C36.1117 105.076 36.1225 104.933 36.2265 104.744L36.5263 104.591ZM102.381 102.115C102.07 102.178 101.469 103.085 101.209 103.362C100.554 104.064 99.7801 104.627 99.0155 105.201L100.119 105.092C101.111 104.933 102.138 104.853 103.139 104.718C103.325 103.89 103.412 103.049 103.513 102.209L102.398 102.118C102.393 102.116 102.386 102.113 102.381 102.115ZM84.2382 99.9805C83.2299 99.9083 82.1819 99.9856 81.1718 100.008L75.3075 100.158L57.1767 100.563C51.735 100.675 46.2764 100.582 40.831 100.586C38.4292 100.588 35.9878 100.511 33.5898 100.646L32.872 102.765L34.3954 102.728C44.6559 102.581 54.917 102.204 65.1738 101.956L78.5331 101.655C80.9535 101.598 83.3782 101.585 85.7948 101.446C85.328 100.991 84.8221 100.255 84.2382 99.9805ZM7.80754 62.5059C7.61991 63.1353 7.81659 64.1147 7.90031 64.7607C8.00264 65.5697 8.16695 66.2534 8.57805 66.9717C10.0794 69.5858 11.8707 72.0896 13.5302 74.6094C17.3497 80.3859 21.2066 86.1367 25.1005 91.8633C26.1669 93.4562 31.1138 101.432 32.0849 102.182L32.2245 102.039L32.7245 100.521C32.2911 99.6986 31.7262 98.9056 31.2314 98.1133L28.5497 93.8018C24.4456 87.3327 20.2471 80.9259 15.955 74.5791L10.7392 66.7217C9.80903 65.3258 8.91441 63.7611 7.80754 62.5059ZM37.7538 60.0264C35.2293 60.0282 32.7081 60.1289 30.1835 60.1641C30.4031 61.7712 31.0464 70.7516 30.8066 71.9482C30.7139 72.0664 30.6913 72.1284 30.5448 72.1875C30.3017 72.2838 21.9562 72.4609 21.0839 72.4424C20.6542 72.4313 20.2036 72.426 19.8056 72.252C19.5508 71.3468 19.6044 69.9268 19.5282 68.9512L18.8583 60.3008C16.2838 60.4174 13.6885 60.3892 11.1083 60.4521C9.99404 60.4781 8.86057 60.4659 7.75188 60.5918C8.38636 62.1171 9.62122 63.6041 10.5439 64.9795L15.3613 72.2109C21.5565 81.3275 27.5697 90.5613 33.4003 99.9111C35.4076 99.6649 37.5994 99.8262 39.6327 99.8096L53.2626 99.7559C63.3667 99.7096 73.473 99.2798 83.5771 99.1465C82.4404 97.8914 80.8866 96.7265 80.0048 95.2881C78.5447 95.3159 77.0694 95.4643 75.6073 95.5439C73.6781 95.6495 71.7408 95.6989 69.8134 95.8359L61.8896 96.1104C60.5743 96.1548 59.2177 96.2811 57.9062 96.2256C57.4953 96.2071 57.0972 96.164 56.7216 95.9883C55.557 94.4294 54.8742 92.3646 54.037 90.6113C53.3971 89.2728 52.6505 87.9619 52.0868 86.5938C51.9418 86.2404 51.8116 85.8644 51.7909 85.4814C51.7705 85.1504 51.8451 84.8721 52.0771 84.6279C52.3244 84.3688 52.6359 84.2205 52.9892 84.1631C54.7826 83.8743 57.555 83.9679 59.4452 83.8994C63.8414 83.7069 68.2396 83.5522 72.6376 83.4355C72.6451 82.5044 72.8577 81.7225 73.5458 81.0449C74.8963 79.714 76.4126 80.1617 78.0048 79.6826C78.6744 79.4827 79.2574 78.9842 79.914 78.7305C80.5018 78.5028 83.661 78.0067 84.3759 78.0195C86.8166 78.0641 88.7534 79.2456 90.4091 80.96C91.7243 79.0698 93.0022 77.151 94.2988 75.2461C95.4224 73.5966 96.5974 71.9597 97.5722 70.2158C93.2671 70.2899 88.9428 70.5785 84.6396 70.7637C81.0248 70.9173 77.3702 70.9539 73.7665 71.2354C73.8502 74.3938 73.8883 77.5535 73.8827 80.7139C72.0986 81.0137 70.1146 80.8668 68.3027 80.9131C64.9466 81.0001 61.5921 81.173 58.2323 81.1396C58.2993 78.02 58.7138 74.9014 58.7138 71.7744C52.9762 72.004 47.2644 72.2813 41.5175 72.335L37.7538 60.0264ZM85.0038 78.8506C84.3678 78.7877 83.7502 78.8083 83.1142 78.8379C83.9439 79.3618 85.3969 80.2264 85.8788 81.0928C85.9773 81.2703 85.9739 81.2838 85.9218 81.4893L85.6757 81.6279C84.6397 81.3611 84.126 80.2544 83.1698 79.7656C81.7243 79.0251 80.5052 79.423 79.082 79.9062C80.1461 80.2673 81.9712 81.0375 82.5927 82.0039C82.7209 82.2036 82.7162 82.3057 82.6679 82.5312C82.2136 82.906 80.8688 81.5726 80.3925 81.3076C79.0641 80.5707 77.2627 80.5 75.7929 80.6963C77.1027 81.1777 78.1837 81.6948 79.1864 82.6816C79.657 83.1444 80.2264 83.6738 80.2304 84.3789C80.1431 84.4086 80.0607 84.4716 79.9697 84.4697C79.6504 84.4605 78.0293 82.6014 77.5644 82.2979C76.7439 81.7573 75.8096 81.5004 74.872 81.2412C74.5281 81.4022 74.2192 81.5895 73.9013 81.7949C73.7153 82.0689 73.5209 82.4099 73.4726 82.7393C73.1412 85.0065 79.3087 92.9829 80.8271 95.0771C82.0697 93.524 83.1123 91.7355 84.2284 90.0879C86.1223 87.2886 88.0756 84.5271 89.9267 81.6982C88.5723 80.2413 87.0074 79.1264 85.0038 78.8506ZM29.1064 56.3906C25.8693 56.5054 22.5834 56.4627 19.3613 56.7256C19.5342 57.8733 19.5448 59.0806 19.6415 60.2412C19.9522 63.9792 20.1149 67.8029 20.5986 71.5205L20.6054 71.6299C20.9496 71.8039 28.9158 71.4149 30.0722 71.4111C30.0815 68.7805 29.769 66.0847 29.6034 63.4541C29.4565 61.1307 29.4598 58.6881 29.1064 56.3906ZM88.7343 27.3389C87.4656 27.2778 86.161 27.3533 84.8886 27.3848L76.9072 27.6533L56.3974 28.3271L39.1493 28.8809C36.8461 28.9716 34.3377 28.8367 32.0624 29.207C35.3684 39.8084 38.2695 50.5377 41.6015 61.1299C42.4145 63.7146 43.3895 68.0883 44.623 70.3525C44.822 70.6524 45.0187 70.977 45.2753 71.2324C45.4407 71.397 45.5716 71.4614 45.8056 71.4873C47.1133 71.6298 48.6039 71.4248 49.9228 71.3711L59.4882 70.958C72.3718 70.3489 85.2593 69.8245 98.1503 69.3857C98.8887 68.4362 99.7001 67.3123 100.228 66.2295C99.3615 64.5299 98.8446 61.9669 98.3144 60.1006L95.6093 50.7695L91.4882 36.7002C90.558 33.5917 89.538 30.4825 88.7343 27.3389ZM86.8085 28.9346C87.4543 29.7686 89.8541 38.6421 90.3564 40.3213L96.5614 61.0947C97.0563 62.7517 97.6632 64.391 98.1376 66.0498C98.2287 66.3682 98.3288 66.7852 98.2675 67.1182C98.2488 67.2287 98.2003 67.3213 98.1503 67.4209C97.756 67.6392 97.2294 67.6895 96.7812 67.7266C95.678 67.8173 94.561 67.8174 93.456 67.8711C90.1911 68.0303 86.9259 68.1599 83.6611 68.2617L57.8652 69.2695C56.3656 69.3271 47.0779 69.8911 46.4697 69.7041C46.3176 69.658 46.3188 69.6547 46.1943 69.5918C45.6008 68.0997 45.2534 66.4475 44.7958 64.9072C43.8638 61.8431 42.9463 58.7765 42.0458 55.7031L37.5732 40.4395C36.7193 37.5772 35.7831 34.7296 34.9794 31.8525C34.8846 31.5084 34.7771 31.158 34.8661 30.8027C35.0967 30.6196 35.4967 30.6288 35.7851 30.6104C38.4994 30.4363 41.237 30.4011 43.957 30.3066C49.2684 30.0863 54.5821 29.9106 59.8954 29.7773L80.582 29.1328C82.6561 29.0773 84.7362 28.9587 86.8085 28.9346ZM86.3476 29.7656C84.9746 29.9378 83.5118 29.8788 82.1239 29.9121L74.2655 30.125L50.3808 30.9229L41.3984 31.1934C39.4971 31.2526 37.5823 31.2638 35.6884 31.4434C38.3395 40.5822 41.0576 49.7048 43.8427 58.8047C44.8547 62.1705 45.7464 65.568 46.8124 68.9189C49.4764 68.9893 52.2336 68.66 54.9013 68.5674C61.8501 68.3563 68.7979 68.0808 75.7411 67.7383L90.1523 67.1807C92.5781 67.0881 95.0637 67.0954 97.4765 66.8418C97.0821 64.9443 96.3181 63.0463 95.747 61.1895C94.7963 58.0957 93.9212 54.9733 92.9892 51.874L88.1894 35.9131C87.568 33.871 87.0433 31.7837 86.3476 29.7656ZM104.132 60.6455C102.686 61.0082 100.857 60.9562 99.3613 60.9951C99.7017 62.0689 100.035 63.1452 100.36 64.2227L100.724 65.4668C101.931 63.9266 102.971 62.2265 104.132 60.6455ZM33.2919 45.3633C32.6639 45.9653 28.0599 54.1548 27.3105 55.5225C27.9802 55.5002 29.225 55.2538 29.7851 55.6592C29.9376 55.7703 30.0159 55.9572 30.0419 56.1367C30.159 56.979 30.018 58.201 30.1425 59.2246L30.1591 59.3457C30.5069 59.3235 30.8592 59.3473 31.2089 59.3584C33.2924 59.2603 35.3842 59.2435 37.4677 59.1973C36.1691 54.5558 34.6761 49.977 33.2919 45.3633ZM66.7646 40.6201C66.9088 40.6273 67.0562 40.6386 67.2011 40.6562C67.3101 40.6695 67.4544 40.689 67.6005 40.7139L67.6015 40.7119C67.7389 40.734 67.8771 40.7608 68.0097 40.7891C68.1428 40.8174 68.2765 40.8486 68.413 40.8848V40.8857C68.5432 40.919 68.6757 40.9568 68.8075 41L68.8085 40.999L69.1884 41.1299L69.1962 41.1318L69.204 41.1348C69.3272 41.1809 69.4604 41.2329 69.5956 41.292H69.5947L69.9628 41.4609L69.9697 41.4648C70.0927 41.5257 70.2125 41.5885 70.328 41.6514L70.6855 41.8594L70.6972 41.8662C70.8063 41.9347 70.92 42.0078 71.0361 42.0869L71.0448 42.0928C71.151 42.1668 71.2657 42.2505 71.3798 42.3389H71.3788L71.6943 42.5889L71.704 42.5967L72.0058 42.8633L72.0155 42.8721L72.3036 43.1533L72.3114 43.1621L72.5859 43.458C72.6808 43.5649 72.7707 43.6738 72.8525 43.7754L73.0986 44.0957L73.1054 44.1064L73.1113 44.1152C73.1875 44.2231 73.2649 44.3341 73.3398 44.4492C73.4101 44.5573 73.4839 44.6747 73.5556 44.7988L73.7548 45.1611H73.7558L73.9345 45.5234L73.9384 45.5342L73.9433 45.5439C73.9979 45.6655 74.0535 45.794 74.1054 45.9268H74.1044C74.1565 46.0544 74.204 46.1801 74.247 46.3037L74.373 46.7012V46.7051C74.4099 46.8333 74.4477 46.9694 74.4804 47.1094L74.5644 47.499L74.5663 47.5078L74.5673 47.5166C74.5906 47.6478 74.6118 47.779 74.6308 47.9121L74.6786 48.3291L74.6796 48.3457C74.688 48.4623 74.6988 48.6032 74.704 48.7441C74.7091 48.8784 74.7108 49.0169 74.7089 49.1611V49.1631C74.7069 49.2951 74.7039 49.4352 74.6943 49.5791C74.6855 49.7107 74.6729 49.8444 74.6591 49.9766C74.6443 50.1227 74.6249 50.2635 74.6044 50.3945C74.5821 50.5373 74.5544 50.6741 74.5273 50.8018C74.4986 50.9397 74.4686 51.0715 74.4374 51.1973L74.4345 51.208L74.4316 51.2178C74.3959 51.3493 74.359 51.4772 74.3212 51.6006L74.3183 51.6064C74.2761 51.7409 74.2312 51.873 74.1894 51.9902L74.1855 51.9971L74.1835 52.0039C74.1353 52.1326 74.0836 52.2625 74.0263 52.3936L74.0253 52.3926C73.9738 52.5147 73.9182 52.6416 73.8554 52.7686C73.7973 52.8859 73.7345 53.0073 73.6689 53.1279C73.6031 53.2488 73.5323 53.3734 73.454 53.498L73.453 53.4971C73.383 53.6118 73.3103 53.7273 73.2372 53.835L73.2353 53.8359C73.1545 53.9545 73.0719 54.0668 73.0019 54.1621L72.9941 54.1719L72.9872 54.1826C72.9082 54.2847 72.8237 54.3911 72.7353 54.4971L72.7275 54.5068C72.6507 54.5965 72.5592 54.7029 72.4618 54.8086L72.453 54.8184C72.3656 54.9109 72.2693 55.0079 72.1718 55.1035H72.1728C72.0725 55.2023 71.9725 55.296 71.87 55.3877L71.8671 55.3906C71.7647 55.4816 71.6589 55.5709 71.5517 55.6572C71.4446 55.7434 71.3322 55.8293 71.2187 55.9111L71.2177 55.9102C71.1041 55.9929 70.9923 56.0726 70.8788 56.1465C70.7683 56.2184 70.6538 56.2891 70.5361 56.3594L70.5155 56.3711C70.4191 56.4257 70.294 56.4967 70.165 56.5635L70.1659 56.5645C70.0388 56.6311 69.9114 56.6923 69.8046 56.7432L69.789 56.749C69.6658 56.8052 69.5412 56.8599 69.4189 56.9102L69.4111 56.9121L69.4032 56.916C69.2893 56.9606 69.1586 57.0109 69.0243 57.0576C68.8883 57.1049 68.7544 57.147 68.6239 57.1846L68.623 57.1836C68.4956 57.2207 68.3659 57.2569 68.2382 57.2891L68.2304 57.29L68.2216 57.292C68.0922 57.3222 67.9619 57.3503 67.832 57.376L67.8124 57.3799C67.7001 57.3998 67.5593 57.4239 67.4159 57.4424L67.4169 57.4434C67.412 57.4441 67.4062 57.4446 67.4013 57.4453L67.3993 57.4443C67.2722 57.4622 67.138 57.4797 66.9999 57.4922C66.8575 57.505 66.7162 57.5135 66.5829 57.5186C66.4485 57.5237 66.3095 57.5263 66.165 57.5244H66.163C66.0321 57.5224 65.8967 57.5184 65.7626 57.5117H65.7538L65.745 57.5098C65.6121 57.5009 65.4778 57.49 65.3447 57.4766C65.1987 57.4618 65.0586 57.4424 64.9277 57.4219C64.7855 57.3996 64.6453 57.373 64.5126 57.3447C64.3832 57.3171 64.2535 57.287 64.1239 57.2549L64.1122 57.252L64.1025 57.249C63.9766 57.2149 63.8477 57.1777 63.7197 57.1377L63.3241 57.0059L63.3144 57.002C63.1931 56.9565 63.0619 56.9038 62.9286 56.8457V56.8467C62.8049 56.7936 62.6795 56.7364 62.5605 56.6797L62.5556 56.6777C62.4265 56.6153 62.305 56.5511 62.1943 56.4922L62.1728 56.4805C62.0605 56.4173 61.9446 56.3502 61.828 56.2793L61.8163 56.2725L62.3476 55.4258C62.4507 55.4885 62.5559 55.5491 62.663 55.6094H62.664C62.5567 55.549 62.4509 55.4877 62.3476 55.4248V55.4258L61.8163 56.2715C61.7051 56.2017 61.5937 56.1297 61.4863 56.0586L61.4765 56.0527L61.4667 56.0459C61.36 55.9714 61.2482 55.8912 61.1376 55.8076L61.1298 55.8008C61.0276 55.7217 60.9206 55.6375 60.8144 55.5488C60.714 55.465 60.6121 55.3754 60.5116 55.2812V55.2822C60.4037 55.1851 60.2969 55.0816 60.1952 54.9756V54.9746C60.0973 54.8747 60.0053 54.7754 59.9277 54.6904L59.912 54.6719C59.8256 54.5725 59.7386 54.4695 59.6523 54.3623C59.5657 54.2548 59.4802 54.1445 59.3984 54.0322L59.3954 54.0273C59.3186 53.9206 59.2383 53.8053 59.1611 53.6865C59.0862 53.5715 59.012 53.451 58.9413 53.3281L58.9423 53.3271C58.8711 53.207 58.8052 53.0871 58.745 52.9707L58.7441 52.9717C58.6809 52.8512 58.6172 52.7227 58.5566 52.5879L58.5575 52.5869C58.5022 52.4654 58.448 52.3435 58.3984 52.2227L58.3974 52.2178C58.3439 52.0855 58.2956 51.9554 58.2499 51.8223L58.2509 51.8213C58.2041 51.6865 58.1622 51.5542 58.1249 51.4248C58.0879 51.2963 58.052 51.1673 58.0195 51.0381L58.0155 51.0205C57.9854 50.8913 57.9552 50.7533 57.9296 50.6094L57.9306 50.6084C57.9044 50.4722 57.8815 50.3362 57.8642 50.1973L57.8652 50.1963C57.846 50.0593 57.8308 49.9266 57.8193 49.7988C57.8063 49.6545 57.799 49.5134 57.7939 49.3799L57.7929 49.3789C57.788 49.2481 57.7851 49.1071 57.787 48.9619L57.788 48.96C57.79 48.8276 57.7944 48.6889 57.8036 48.5449V48.542C57.8125 48.4093 57.8239 48.2739 57.8378 48.1406L57.8388 48.1279L58.832 48.2441L57.8398 48.127C57.8541 48.0057 57.8713 47.8602 57.8974 47.71H57.8984C57.9198 47.5755 57.9448 47.4433 57.9716 47.3174H57.9706C57.9987 47.1822 58.0312 47.0504 58.0663 46.917H58.0654C58.1005 46.7787 58.141 46.6372 58.1874 46.4971H58.1884C58.2308 46.3609 58.2748 46.2324 58.3163 46.1191H58.3173C58.3679 45.9782 58.4242 45.8432 58.4687 45.7373C58.5254 45.602 58.5849 45.4725 58.6425 45.3535L58.6474 45.3457L58.8417 44.9736C58.9056 44.8567 58.9751 44.7366 59.0507 44.6162C59.112 44.5186 59.1881 44.3973 59.2714 44.2773H59.2704L59.5224 43.9316C59.6037 43.8243 59.6904 43.7147 59.7822 43.6074C59.8685 43.5043 59.9604 43.3987 60.0575 43.2959C60.1537 43.192 60.2505 43.0958 60.3398 43.0078L60.3486 42.998L60.6454 42.7236L60.6542 42.7158L60.9726 42.4492C61.0716 42.3697 61.1778 42.2896 61.288 42.2109C61.4096 42.1206 61.5321 42.038 61.6415 41.9668C61.752 41.895 61.8685 41.825 61.9863 41.7568V41.7559C61.9882 41.7547 61.9912 41.7531 61.9931 41.752C61.9952 41.7506 61.9977 41.7483 61.9999 41.7471V41.748C62.1219 41.6757 62.2433 41.6088 62.3613 41.5479L62.37 41.543C62.4797 41.4877 62.6068 41.4252 62.7402 41.3652C62.8584 41.3121 62.9817 41.2579 63.1122 41.2051L63.123 41.2012C63.2487 41.152 63.3765 41.1051 63.5019 41.0615C63.6388 41.0139 63.7753 40.9721 63.9023 40.9355L63.9013 40.9346C64.0289 40.8974 64.1661 40.8621 64.3085 40.8291C64.4321 40.8003 64.5647 40.7719 64.7021 40.7471L64.7011 40.7461C64.7022 40.746 64.704 40.7462 64.705 40.7461C64.7096 40.7452 64.715 40.743 64.7197 40.7422V40.7432C64.8625 40.7156 65.0038 40.6944 65.1132 40.6787L65.1308 40.6768C65.2432 40.6627 65.3851 40.6468 65.5292 40.6357V40.6348C65.5309 40.6348 65.5335 40.6349 65.5351 40.6348C65.5387 40.6344 65.5432 40.6331 65.5468 40.6328L65.5458 40.6338C65.6846 40.6217 65.8181 40.6133 65.9462 40.6084L66.3466 40.6025H66.3622C66.5023 40.6044 66.6373 40.6118 66.7646 40.6201ZM64.7216 56.3672C64.8404 56.3925 64.9616 56.4157 65.082 56.4346C65.2023 56.4534 65.3233 56.4701 65.4452 56.4824H65.4462C65.3243 56.4701 65.2033 56.4524 65.0829 56.4336C64.9624 56.4147 64.8406 56.3925 64.7216 56.3672C64.6027 56.3418 64.4834 56.3137 64.3642 56.2842H64.3632C64.4825 56.3137 64.6026 56.3418 64.7216 56.3672ZM67.6376 56.3955C67.5168 56.417 67.3955 56.4381 67.2763 56.4531V56.4541L67.6376 56.3955L67.995 56.3184H67.9941C67.8757 56.346 67.7563 56.3721 67.6376 56.3955ZM19.9081 0.804688C19.5901 0.778799 19.2848 0.791643 18.9687 0.837891C17.3688 1.06753 15.9782 1.81053 15.0146 3.125C11.646 7.72242 14.1049 16.3117 15.4853 21.3623C15.9931 23.2172 16.4718 25.0853 17.0429 26.9199C17.5954 28.6952 18.2318 30.4434 18.788 32.2188C19.4001 34.1923 19.9306 36.187 20.3808 38.2031C21.2403 42.2689 21.9322 46.3651 22.455 50.4883C22.6316 51.8269 22.6413 53.7227 22.872 54.9277C22.9259 55.2053 23.0082 55.5015 23.2499 55.6699C23.4092 55.5703 23.4076 55.505 23.4501 55.3281C23.6584 54.4767 23.6717 53.4985 23.7665 52.6211C23.9674 50.7272 24.2094 48.8231 24.2988 46.9199C24.3397 46.0757 24.334 42.4743 24.5849 41.8857C24.6555 41.7193 24.6138 41.7802 24.8027 41.6992L25.0116 41.8398C25.1473 42.5173 25.0638 43.3011 25.0527 43.9951C25.0786 46.6332 24.777 49.2574 24.498 51.877C24.3696 53.082 24.161 54.3207 24.1591 55.5312C24.3953 55.5997 24.5688 55.581 24.8105 55.5625C24.8252 55.5442 24.8425 55.5259 24.8554 55.5059C25.514 54.4358 29.3825 34.8116 29.4277 32.6855C29.4573 31.3193 28.2468 29.4697 28.081 28.0479C28.0494 27.7759 28.0538 27.6552 28.2265 27.4443C28.9985 27.2556 30.0108 27.7999 30.6991 28.1221C31.5084 20.8867 31.6271 12.5586 27.5419 6.20996C25.7075 3.35497 23.2272 1.53233 19.9081 0.804688ZM5.18449 16.8838C4.19315 16.9024 3.21993 17.3961 2.54094 18.0957C1.21286 19.4677 0.838377 21.5862 0.849533 23.4209C0.862642 25.6405 1.52446 27.8848 2.40617 29.9082C4.15871 33.9313 6.78432 37.5994 9.35539 41.1338C11.3796 43.9313 13.4542 46.6965 15.5751 49.4219C16.4699 50.5696 17.3541 51.7252 18.2265 52.8896C18.8533 53.7301 19.4581 54.7203 20.2206 55.4385C20.3619 55.5716 20.3902 55.637 20.5907 55.626C20.667 54.6633 19.43 51.9189 19.0429 50.9355C18.7211 50.2063 18.2917 49.4061 18.1298 48.625C18.0815 48.392 18.0551 48.2969 18.1943 48.0898L18.4443 48.0996C18.9062 48.3481 20.4846 52.6696 20.7636 53.5137C20.9867 54.1837 21.043 54.9408 21.4521 55.5312C21.6901 55.6701 21.6985 55.661 21.9736 55.624C21.9865 55.5927 22.0014 55.5644 22.0107 55.5312C22.2245 54.7906 21.7744 52.0842 21.6757 51.1562C20.7846 42.6137 18.9758 31.9103 14.4179 24.5303C12.4346 21.3179 9.78894 17.8459 5.92473 16.9238C5.68117 16.9035 5.42991 16.8783 5.18449 16.8838ZM30.0419 34.6338C29.8039 35.8778 29.6497 37.1391 29.4228 38.3867C28.8795 41.3026 28.2917 44.21 27.6611 47.1074C27.276 48.9068 26.8769 50.7032 26.4677 52.4971C26.2425 53.4485 25.8427 54.5397 25.7646 55.5059C25.9634 55.639 25.9382 55.6052 26.1591 55.583C26.6574 55.2296 26.9088 54.5744 27.1913 54.0469C28.4415 52.0826 29.5914 50.0373 30.7802 48.0342C31.4815 46.8513 32.1506 45.5716 33.0546 44.5293C31.9533 41.3079 31.2641 37.7682 30.0419 34.6338ZM71.203 54.6426C71.1393 54.6992 71.0728 54.7539 71.0068 54.8086L71.203 54.6436C71.2952 54.5611 71.384 54.4779 71.4716 54.3916L71.203 54.6426ZM71.4775 45.4141C71.2851 45.4141 71.1002 45.4913 70.9638 45.627L65.207 51.3555L62.8505 49.0107C62.714 48.8749 62.5284 48.7989 62.3359 48.7988C62.1435 48.7989 61.9586 48.8751 61.8222 49.0107L61.2909 49.5391C61.223 49.6066 61.1686 49.6879 61.1318 49.7764C61.0951 49.8648 61.0762 49.96 61.0761 50.0557C61.0761 50.1514 61.0951 50.2465 61.1318 50.335C61.1686 50.4236 61.2229 50.5046 61.2909 50.5723L64.6904 53.9561C64.8112 54.0763 64.9708 54.15 65.1405 54.165C65.3102 54.1799 65.4801 54.1352 65.62 54.0381C65.6609 54.0111 65.6996 53.9799 65.7343 53.9453L72.5234 47.1885C72.5912 47.1209 72.6448 47.0396 72.6816 46.9512C72.7182 46.8628 72.7372 46.7676 72.7372 46.6719C72.7372 46.576 72.7183 46.4801 72.6816 46.3916C72.6448 46.3033 72.5911 46.2228 72.5234 46.1553L71.9921 45.627C71.8557 45.4911 71.67 45.4142 71.4775 45.4141ZM71.9667 53.8564C71.9249 53.9053 71.8813 53.9534 71.8388 54.002L71.9677 53.8564L72.1962 53.5703L71.9667 53.8564ZM59.9989 53.1416C60.0397 53.2043 60.084 53.2656 60.1269 53.3271C60.0839 53.2655 60.0398 53.2034 59.9989 53.1406C59.9325 53.0385 59.8679 52.9339 59.8075 52.8291C59.8679 52.934 59.9325 53.0394 59.9989 53.1416ZM73.3642 51.3076C73.328 51.4231 73.2876 51.5395 73.247 51.6533C73.2043 51.7674 73.1585 51.8806 73.1093 51.9932H73.1103C73.1595 51.8807 73.2043 51.7673 73.247 51.6533L73.3652 51.3066L73.3642 51.3076ZM111.519 32.3379C111.51 32.4184 111.513 32.3807 111.515 32.4785C111.559 36.0668 111.267 42.562 114.047 45.2002C115.57 46.6458 117.479 46.9902 119.513 46.9365C119.727 47.8436 119.916 48.7623 119.972 49.6934C121.789 49.4434 123.705 49.5562 125.539 49.5654L124.614 48.7842C121.533 46.0034 118.984 42.9226 117.358 39.0791C117.946 38.3387 118.493 37.6271 118.419 36.6221C118.369 35.9556 118.05 35.2499 117.509 34.8389C117.166 34.5779 116.738 34.4537 116.312 34.5166C115.641 34.6185 115.323 35.0297 114.949 35.5459C113.736 34.5998 112.465 33.5487 111.519 32.3379ZM59.0341 47.1631C59.0025 47.2823 58.9752 47.3997 58.9501 47.5205C58.9248 47.6394 58.9006 47.7614 58.8818 47.8818L58.8827 47.8809C58.9016 47.7605 58.9248 47.6393 58.9501 47.5205C58.9753 47.3995 59.0025 47.2816 59.0341 47.1621C59.0365 47.1525 59.0404 47.1434 59.0429 47.1338L59.0341 47.1631ZM73.5058 47.3359C73.5334 47.4544 73.5595 47.5735 73.5829 47.6924L73.5068 47.3359L73.413 46.9814L73.5058 47.3359ZM59.1357 46.8115L59.0986 46.9414C59.1116 46.8984 59.1225 46.8542 59.1366 46.8115C59.1727 46.6938 59.2132 46.5791 59.2558 46.4629L59.1357 46.8115ZM72.6923 45.3047C72.7549 45.4115 72.8135 45.5165 72.87 45.626C72.8135 45.5166 72.7549 45.4105 72.6923 45.3037L72.5019 44.9951H72.5009C72.5674 45.0973 72.6319 45.1998 72.6923 45.3047ZM60.5419 44.2568V44.2578C60.6204 44.1638 60.7018 44.0705 60.7851 43.9824H60.7841C60.701 44.0703 60.6203 44.163 60.5419 44.2568ZM8.92961 29.3574C9.52658 29.8869 9.96722 30.7143 10.3671 31.3955C11.1674 32.7551 15.8406 41.5328 15.914 42.6709C15.923 42.8076 15.7795 42.8968 15.6884 42.9893C15.6792 42.9983 15.6683 43.0066 15.6591 43.0156C14.8536 42.0511 13.4081 38.7202 12.7197 37.4258C11.5476 35.2152 10.1866 33.0653 9.0927 30.8232C8.90679 30.4403 8.7228 30.0656 8.72453 29.6309C8.78951 29.5311 8.84429 29.4406 8.92961 29.3574ZM69.5263 42.3613C69.6351 42.4152 69.7424 42.472 69.8495 42.5303C69.7427 42.4721 69.6358 42.4151 69.5273 42.3613L69.1943 42.209C69.3045 42.2563 69.4155 42.3077 69.5263 42.3613ZM117.124 36.291C117.215 36.5737 117.253 36.7258 117.17 37.0234C116.846 37.4729 116.415 37.5623 115.901 37.7178C115.885 37.3737 115.904 36.9974 116.147 36.7217C116.434 36.3982 116.708 36.3354 117.124 36.291ZM22.6855 17.5986C23.4447 19.0064 25.238 34.6638 24.7841 36.3467L24.5927 36.5498C24.353 36.4241 24.2802 36.4275 24.204 36.1543C24.0124 35.4787 24.0402 34.6172 23.9863 33.9082L23.6386 29.335C23.5214 27.8785 22.3612 18.3431 22.6073 17.6709L22.6855 17.5986ZM153.91 22.6885C155.064 23.7922 159.164 30.0652 159.199 31.5186C159.205 31.694 159.154 31.7942 159.041 31.9199C158.352 30.901 153.729 23.3841 153.799 22.8047L153.91 22.6885ZM43.9599 15.1758C43.8244 15.1758 43.6942 15.1786 43.5605 15.1934C38.4928 15.7379 34.7433 22.1763 31.7499 25.7607L31.5282 28.2939C33.1449 28.2902 34.7719 28.1809 36.3886 28.1143C39.9549 28.0624 43.5274 27.8772 47.0937 27.7568C48.1093 26.0074 48.9984 24.0628 49.1845 22.0283C49.3463 20.2493 48.8922 18.2057 47.6982 16.8301C46.7121 15.6914 45.4055 15.298 43.9599 15.1758ZM140.991 3.75488C142.05 4.20109 143.053 4.85113 144.02 5.46582C149.829 9.1595 155.121 14.6453 158.771 20.4551C159.274 21.2549 160.194 22.5273 160.454 23.3975C160.478 23.4784 160.468 23.5199 160.461 23.5938L160.401 23.6455C159.081 22.3071 158.1 20.4351 157.001 18.8984C155.503 16.8044 153.75 14.8097 151.936 12.9805C150.283 11.3105 148.533 9.61971 146.679 8.17188C145.248 7.05358 141.851 5.04512 140.934 3.92871C140.952 3.77358 140.916 3.82079 140.991 3.75488ZM131.395 5.9043C136.177 6.70414 142.987 11.5089 146.605 14.6768C147.454 15.421 148.478 16.2784 149.143 17.1855C149.276 17.3669 149.339 17.5296 149.394 17.7461L149.264 17.8057C145.835 14.7526 142.135 11.6974 138.135 9.40527C136.245 8.32039 134.222 7.42262 132.235 6.53027C131.973 6.41182 131.342 6.19259 131.249 5.91504L131.395 5.9043Z" fill="black"/>
</svg>
